<svg width="1439" height="846" viewBox="0 0 1439 846" fill="none" xmlns="http://www.w3.org/2000/svg">
<path fill-rule="evenodd" clip-rule="evenodd" d="M963.04 276.579C932.071 178.903 923.548 70.2288 925.194 -0.0702515L931.192 0.0701907C929.557 69.8976 938.042 177.88 968.759 274.765C991.916 347.803 1027.52 413.989 1080.48 453.103C1121.34 442.601 1162.92 434.692 1203.77 428.943C1204.6 349.799 1234.7 291.674 1275.15 250.424C1325.01 199.581 1390.41 174.543 1435.51 167.041L1436.49 172.959C1392.37 180.3 1328.22 204.874 1279.43 254.625C1240.22 294.614 1210.81 350.979 1209.78 428.112C1295.07 416.527 1376.83 414.309 1441.65 417.504L1441.35 423.496C1376.59 420.304 1294.9 422.548 1209.75 434.171C1209.85 450.979 1211.29 468.752 1214.24 487.532C1216.23 500.214 1217.62 512.522 1218.45 524.463C1256.89 556.887 1280.22 600.662 1293.37 646.696C1313.88 718.489 1309.75 796.047 1299.64 845.6L1293.76 844.4C1303.73 795.528 1307.78 718.982 1287.6 648.344C1275.22 604.984 1253.74 563.952 1218.95 532.848C1228.27 723.04 1095.73 817.545 1022.95 841.846L1021.05 836.154C1092.79 812.202 1224.72 718.08 1212.63 527.431C1191.98 510.458 1166.96 496.828 1136.79 487.931C1115.67 481.7 1096.54 472.038 1079.23 459.623C1045.65 468.359 1012.59 478.863 980.889 491.378C828.006 551.727 707.321 658.445 709.5 838.464L703.5 838.536C701.279 654.955 824.677 546.59 978.686 485.797C1009.16 473.766 1040.87 463.584 1073.08 455.036C1020.73 414.494 985.759 348.236 963.04 276.579ZM1138.49 482.176C1119.76 476.651 1102.6 468.316 1086.91 457.659C1125.67 447.909 1165.04 440.481 1203.76 435.004C1203.9 451.876 1205.36 469.683 1208.31 488.463C1209.96 498.992 1211.19 509.258 1212.03 519.264C1191.69 503.457 1167.39 490.699 1138.49 482.176ZM0.457642 276.813C102.097 314.476 290.175 478.69 222.054 834.436L227.947 835.564C296.625 476.91 106.903 309.858 2.54242 271.187L0.457642 276.813Z" fill="url(#paint0_linear_107_37)" fill-opacity="0.06"/>
<defs>
<linearGradient id="paint0_linear_107_37" x1="-150.88" y1="-61.1213" x2="21.1544" y2="1179.12" gradientUnits="userSpaceOnUse">
<stop stop-color="#343045"/>
<stop offset="0.151042" stop-color="#C0B7E8"/>
<stop offset="0.760417" stop-color="#8176AF"/>
<stop offset="0.973958" stop-color="#343045"/>
</linearGradient>
</defs>
</svg>
