<svg width="1440" height="5432" viewBox="0 0 1440 5432" fill="none" xmlns="http://www.w3.org/2000/svg">
<path fill-rule="evenodd" clip-rule="evenodd" d="M926.194 -0.0702515C924.548 70.2288 933.071 178.903 964.04 276.579C986.759 348.236 1021.73 414.494 1074.08 455.036C1041.87 463.584 1010.16 473.766 979.686 485.797C825.677 546.59 702.279 654.955 704.5 838.536L710.5 838.464C708.321 658.445 829.006 551.727 981.889 491.378C1013.59 478.863 1046.65 468.359 1080.23 459.623C1097.54 472.038 1116.67 481.7 1137.79 487.931C1167.96 496.828 1192.98 510.458 1213.63 527.431C1225.72 718.08 1093.79 812.202 1022.05 836.154L1023.95 841.846C1096.73 817.545 1229.27 723.04 1219.95 532.848C1254.74 563.952 1276.22 604.984 1288.6 648.344C1308.78 718.982 1304.73 795.528 1294.76 844.4L1300.64 845.6C1310.75 796.047 1314.88 718.489 1294.37 646.696C1281.22 600.662 1257.89 556.887 1219.45 524.463C1218.62 512.522 1217.23 500.214 1215.24 487.532C1212.29 468.752 1210.85 450.979 1210.75 434.171C1295.9 422.548 1377.59 420.304 1442.35 423.496L1442.65 417.504C1377.83 414.309 1296.07 416.527 1210.78 428.112C1211.81 350.979 1241.22 294.614 1280.43 254.625C1329.22 204.874 1393.37 180.3 1437.49 172.959L1436.51 167.041C1391.41 174.543 1326.01 199.581 1276.15 250.424C1235.7 291.674 1205.6 349.799 1204.77 428.943C1163.92 434.692 1122.34 442.601 1081.48 453.103C1028.52 413.989 992.916 347.803 969.759 274.765C939.042 177.88 930.557 69.8976 932.192 0.0701907L926.194 -0.0702515ZM1087.91 457.659C1103.6 468.316 1120.76 476.651 1139.49 482.176C1168.39 490.699 1192.69 503.457 1213.03 519.264C1212.19 509.258 1210.96 498.992 1209.31 488.463C1206.36 469.683 1204.9 451.876 1204.76 435.004C1166.04 440.481 1126.67 447.909 1087.91 457.659ZM1306.45 1303.28C1367.39 1347.95 1417.58 1423.12 1445.19 1478.66L1439.81 1481.34C1412.42 1426.21 1362.76 1351.99 1302.9 1308.12C1273 1286.21 1240.77 1272.02 1207.65 1271.35C1174.62 1270.68 1140.3 1283.43 1106.07 1316.17C1019.3 1399.19 933.299 1470.2 842.871 1504.31C752.199 1538.51 657.224 1535.55 552.922 1471.05C450.268 1407.57 321.1 1400.53 212.279 1420.02C157.9 1429.75 108.743 1446.09 70.6902 1465.2C32.4777 1484.4 5.99759 1506.12 -3.80094 1526.31L-9.19907 1523.69C1.5024 1501.63 29.5223 1479.17 67.9973 1459.84C106.632 1440.44 156.35 1423.93 211.221 1414.11C320.9 1394.47 451.732 1401.43 556.078 1465.95C658.776 1529.45 751.801 1532.24 840.754 1498.69C929.951 1465.05 1015.2 1394.81 1101.93 1311.83C1137.1 1278.17 1172.91 1264.64 1207.77 1265.35C1242.54 1266.06 1275.95 1280.93 1306.45 1303.28ZM-3.54144 1627.34C75.3642 1600.74 202.388 1568.8 326.886 1559.49C389.132 1554.84 450.64 1555.85 505.136 1565.95C559.651 1576.06 606.927 1595.22 640.963 1626.7C727.934 1707.14 835.65 1753.4 936.144 1765.42C1036.57 1777.42 1130.23 1755.24 1188.6 1698.14C1279.48 1609.24 1393.76 1623.9 1439.38 1642.28L1441.62 1636.72C1394.58 1617.76 1277.52 1602.76 1184.4 1693.86C1127.77 1749.26 1036.18 1771.33 936.856 1759.46C837.6 1747.6 731.066 1701.86 645.037 1622.3C609.873 1589.78 561.383 1570.28 506.23 1560.05C451.058 1549.82 388.997 1548.83 326.439 1553.51C201.328 1562.86 73.8025 1594.93 -5.45857 1621.66L-3.54144 1627.34ZM977.113 2465.03C958.895 2513.4 962.062 2567.68 997.773 2627.9C1070.43 2750.42 1061.72 2838.13 1020.2 2897.86C978.912 2957.26 905.765 2988.12 851.149 2998.45L851.036 2998.47L850.922 2998.49C765.715 3007.92 636.711 3007.89 526.621 2977.07C416.622 2946.27 324.391 2884.32 315.232 2769.23C306.301 2656.99 251.371 2575.13 186.224 2518.34C121.024 2461.49 45.675 2429.84 -3.69227 2418.13L-2.30774 2412.29C47.894 2424.2 124.151 2456.26 190.167 2513.81C256.235 2571.41 312.132 2654.64 321.213 2768.75C330.067 2880 419.045 2940.72 528.239 2971.29C637.295 3001.83 765.403 3001.9 850.147 2992.54C903.927 2982.34 975.258 2952 1015.27 2894.44C1055.07 2837.18 1064.45 2752.1 992.612 2630.96C956.073 2569.35 952.572 2513.16 971.498 2462.91C990.363 2412.83 1031.36 2369.02 1083.1 2331.65C1186.56 2256.9 1334.09 2207.09 1438.35 2184.07L1439.65 2189.93C1335.76 2212.86 1189.14 2262.44 1086.61 2336.51C1035.35 2373.54 995.393 2416.49 977.113 2465.03ZM843.868 3746C875.818 3701.08 933.599 3672.42 991.335 3668.47C1049.01 3664.52 1106.04 3685.24 1137.11 3738.27C1169.59 3793.7 1240.23 3824.36 1305.11 3830.03C1337.61 3832.87 1368.99 3829.48 1393.77 3819.59C1418.55 3809.69 1437.05 3793.12 1442.91 3769.49L1437.09 3768.05C1431.84 3789.19 1415.21 3804.57 1391.54 3814.02C1367.86 3823.47 1337.48 3826.84 1305.63 3824.05C1241.81 3818.47 1173.41 3788.35 1142.29 3735.24C1109.77 3679.73 1050.21 3658.43 990.926 3662.48C931.698 3666.54 872.135 3695.9 838.979 3742.52C806.893 3787.63 765.567 3811.45 715.894 3813.29C666.048 3815.13 607.37 3794.85 540.763 3750.76C473.454 3706.2 425.5 3697.29 380.918 3706.21C358.755 3710.65 337.591 3719.46 315.498 3730.2C305.959 3734.84 296.211 3739.85 286.126 3745.04C284.532 3745.86 282.93 3746.69 281.319 3747.51C269.5 3753.59 257.181 3759.86 244.086 3766.06C166.228 3802.91 107.555 3794.03 66.4995 3770.22C25.2381 3746.28 1.40893 3707.06 -6.13575 3682.84L-11.8643 3684.63C-3.9314 3710.09 20.7647 3750.63 63.489 3775.41C106.419 3800.31 167.192 3809.1 246.654 3771.48C259.842 3765.24 272.234 3758.93 284.061 3752.85C285.677 3752.02 287.282 3751.19 288.877 3750.37L288.895 3750.36L288.931 3750.35C299.002 3745.17 308.666 3740.19 318.122 3735.6C340.063 3724.93 360.685 3716.38 382.096 3712.09C424.664 3703.57 471.014 3711.78 537.451 3755.76C604.589 3800.21 664.517 3821.19 716.116 3819.29C767.888 3817.37 810.847 3792.42 843.868 3746ZM1198.33 5233.03C1287.57 5194.55 1376.61 5167.72 1439.23 5162.01L1439.77 5167.99C1378.06 5173.61 1289.7 5200.17 1200.7 5238.54C1111.74 5276.9 1022.47 5326.93 958.908 5379.32C876.715 5447.05 771.961 5441.47 669.364 5407.28C566.74 5373.09 465.453 5310.02 389.399 5261.54C335.925 5228.21 252.706 5195.27 176.582 5204.06C138.612 5208.44 102.443 5223.2 72.4933 5253.46C42.5184 5283.75 18.5645 5329.79 5.44455 5397.07L-0.444555 5395.93C12.8355 5327.82 37.2066 5280.59 68.2286 5249.24C99.2753 5217.87 136.775 5202.61 175.893 5198.09C253.938 5189.08 338.56 5222.78 392.587 5256.45L392.6 5256.46L392.613 5256.47C468.724 5304.99 569.432 5367.66 671.261 5401.59C773.122 5435.53 875.285 5440.45 955.092 5374.69C1019.24 5321.82 1109.05 5271.52 1198.33 5233.03ZM553.48 5199.82C724.337 5261.6 908.091 5222.24 1068.05 5148.34C1228.04 5074.42 1364.67 4965.74 1441.63 4888.11L1437.37 4883.89C1360.83 4961.09 1224.76 5069.32 1065.53 5142.89C906.259 5216.48 724.263 5255.2 555.52 5194.18C215.209 5071.12 44.8167 5177.23 1.93969 5247.44L7.0603 5250.56C47.8499 5183.77 214.591 5077.28 553.48 5199.82Z" fill="url(#paint0_linear_109_38)" fill-opacity="0.13"/>
<defs>
<linearGradient id="paint0_linear_109_38" x1="1445.19" y1="12.8701" x2="-11.8643" y2="12.8701" gradientUnits="userSpaceOnUse">
<stop stop-color="#343045"/>
<stop offset="0.348958" stop-color="#C0B7E8"/>
<stop offset="0.6875" stop-color="#8176AF"/>
<stop offset="1" stop-color="#343045"/>
</linearGradient>
</defs>
</svg>
